<mxfile host="Electron" agent="Mozilla/5.0 (Windows NT 10.0; Win64; x64) AppleWebKit/537.36 (KHTML, like Gecko) draw.io/27.0.5 Chrome/134.0.6998.205 Electron/35.3.0 Safari/537.36" version="27.0.5">
  <diagram name="Page-1" id="4uPa_Z8kLkDAbIll4rXd">
    <mxGraphModel dx="467" dy="317" grid="1" gridSize="10" guides="1" tooltips="1" connect="1" arrows="1" fold="1" page="1" pageScale="1" pageWidth="827" pageHeight="1169" math="0" shadow="0">
      <root>
        <mxCell id="0" />
        <mxCell id="1" parent="0" />
        <mxCell id="1Ip1bbgy9BkKtDCGq5w8-1" value="Process" style="rounded=1;whiteSpace=wrap;html=1;" vertex="1" parent="1">
          <mxGeometry x="360" y="80" width="70" height="30" as="geometry" />
        </mxCell>
        <mxCell id="1Ip1bbgy9BkKtDCGq5w8-2" value="Splitter&lt;div&gt;1-to-N&lt;/div&gt;&lt;div&gt;Conserves resources&lt;/div&gt;" style="rounded=1;whiteSpace=wrap;html=1;" vertex="1" parent="1">
          <mxGeometry x="460" y="260" width="130" height="50" as="geometry" />
        </mxCell>
        <mxCell id="1Ip1bbgy9BkKtDCGq5w8-3" value="Combiner&lt;div&gt;N-to-1&lt;/div&gt;&lt;div&gt;Conserves resource&lt;/div&gt;" style="rounded=1;whiteSpace=wrap;html=1;" vertex="1" parent="1">
          <mxGeometry x="600" y="260" width="140" height="50" as="geometry" />
        </mxCell>
        <mxCell id="1Ip1bbgy9BkKtDCGq5w8-4" value="Simple Process&lt;div&gt;1-to-1&lt;/div&gt;&lt;div&gt;Conserves resources&lt;/div&gt;" style="rounded=1;whiteSpace=wrap;html=1;" vertex="1" parent="1">
          <mxGeometry x="314" y="260" width="136" height="50" as="geometry" />
        </mxCell>
        <mxCell id="1Ip1bbgy9BkKtDCGq5w8-5" value="Source&lt;div&gt;0-to-1&lt;/div&gt;&lt;div&gt;Creates resources&lt;/div&gt;" style="rounded=1;whiteSpace=wrap;html=1;" vertex="1" parent="1">
          <mxGeometry x="130" y="260" width="160" height="50" as="geometry" />
        </mxCell>
        <mxCell id="1Ip1bbgy9BkKtDCGq5w8-6" value="Sink&lt;div&gt;1-to-0&lt;/div&gt;&lt;div&gt;Destroys resources&lt;/div&gt;" style="rounded=1;whiteSpace=wrap;html=1;" vertex="1" parent="1">
          <mxGeometry x="414" y="200" width="156" height="50" as="geometry" />
        </mxCell>
        <mxCell id="1Ip1bbgy9BkKtDCGq5w8-7" value="" style="shape=mxgraph.signs.transportation.truck_1;html=1;pointerEvents=1;fillColor=#000000;strokeColor=none;verticalLabelPosition=bottom;verticalAlign=top;align=center;" vertex="1" parent="1">
          <mxGeometry x="247.76" y="490" width="99" height="51" as="geometry" />
        </mxCell>
        <mxCell id="1Ip1bbgy9BkKtDCGq5w8-8" value="" style="shape=mxgraph.signs.transportation.car_2;html=1;pointerEvents=1;fillColor=#000000;strokeColor=none;verticalLabelPosition=bottom;verticalAlign=top;align=center;" vertex="1" parent="1">
          <mxGeometry x="247.76" y="430" width="100" height="33" as="geometry" />
        </mxCell>
        <mxCell id="1Ip1bbgy9BkKtDCGq5w8-9" value="" style="shape=mxgraph.signs.transportation.scooter;html=1;pointerEvents=1;fillColor=#000000;strokeColor=none;verticalLabelPosition=bottom;verticalAlign=top;align=center;" vertex="1" parent="1">
          <mxGeometry x="271.52" y="379" width="32.48" height="21" as="geometry" />
        </mxCell>
        <mxCell id="1Ip1bbgy9BkKtDCGq5w8-11" value="&lt;b&gt;Selecting a vehicle&lt;/b&gt;&lt;div&gt;&lt;font style=&quot;font-size: 10px;&quot;&gt;XOR-like Combiner Process&lt;/font&gt;&lt;/div&gt;" style="rounded=1;whiteSpace=wrap;html=1;" vertex="1" parent="1">
          <mxGeometry x="460" y="421" width="150" height="37.75" as="geometry" />
        </mxCell>
        <mxCell id="1Ip1bbgy9BkKtDCGq5w8-12" value="" style="endArrow=classic;html=1;rounded=0;entryX=0;entryY=0.5;entryDx=0;entryDy=0;" edge="1" parent="1" target="1Ip1bbgy9BkKtDCGq5w8-11">
          <mxGeometry width="50" height="50" relative="1" as="geometry">
            <mxPoint x="360" y="390" as="sourcePoint" />
            <mxPoint x="430" y="440" as="targetPoint" />
            <Array as="points">
              <mxPoint x="390" y="440" />
            </Array>
          </mxGeometry>
        </mxCell>
        <mxCell id="1Ip1bbgy9BkKtDCGq5w8-13" value="" style="endArrow=classic;html=1;rounded=0;entryX=0;entryY=0.5;entryDx=0;entryDy=0;" edge="1" parent="1" target="1Ip1bbgy9BkKtDCGq5w8-11">
          <mxGeometry width="50" height="50" relative="1" as="geometry">
            <mxPoint x="360" y="510" as="sourcePoint" />
            <mxPoint x="430" y="440" as="targetPoint" />
            <Array as="points">
              <mxPoint x="390" y="440" />
            </Array>
          </mxGeometry>
        </mxCell>
        <mxCell id="1Ip1bbgy9BkKtDCGq5w8-14" value="" style="endArrow=classic;html=1;rounded=0;entryX=0;entryY=0.5;entryDx=0;entryDy=0;" edge="1" parent="1" target="1Ip1bbgy9BkKtDCGq5w8-11">
          <mxGeometry width="50" height="50" relative="1" as="geometry">
            <mxPoint x="360" y="440" as="sourcePoint" />
            <mxPoint x="460" y="449" as="targetPoint" />
            <Array as="points" />
          </mxGeometry>
        </mxCell>
        <mxCell id="1Ip1bbgy9BkKtDCGq5w8-15" value="" style="shape=mxgraph.signs.transportation.scooter;html=1;pointerEvents=1;fillColor=#000000;strokeColor=none;verticalLabelPosition=bottom;verticalAlign=top;align=center;" vertex="1" parent="1">
          <mxGeometry x="229.99999999999997" y="379" width="32.48" height="21" as="geometry" />
        </mxCell>
        <mxCell id="1Ip1bbgy9BkKtDCGq5w8-16" value="" style="shape=mxgraph.signs.transportation.scooter;html=1;pointerEvents=1;fillColor=#000000;strokeColor=none;verticalLabelPosition=bottom;verticalAlign=top;align=center;" vertex="1" parent="1">
          <mxGeometry x="310" y="379" width="32.48" height="21" as="geometry" />
        </mxCell>
        <mxCell id="1Ip1bbgy9BkKtDCGq5w8-17" value="" style="shape=mxgraph.signs.transportation.car_2;html=1;pointerEvents=1;fillColor=#000000;strokeColor=none;verticalLabelPosition=bottom;verticalAlign=top;align=center;" vertex="1" parent="1">
          <mxGeometry x="140" y="430" width="100" height="33" as="geometry" />
        </mxCell>
        <mxCell id="1Ip1bbgy9BkKtDCGq5w8-18" value="" style="shape=mxgraph.signs.transportation.truck_1;html=1;pointerEvents=1;fillColor=#000000;strokeColor=none;verticalLabelPosition=bottom;verticalAlign=top;align=center;" vertex="1" parent="1">
          <mxGeometry x="140" y="490" width="99" height="51" as="geometry" />
        </mxCell>
        <mxCell id="1Ip1bbgy9BkKtDCGq5w8-19" value="" style="shape=mxgraph.signs.transportation.scooter;html=1;pointerEvents=1;fillColor=#000000;strokeColor=none;verticalLabelPosition=bottom;verticalAlign=top;align=center;" vertex="1" parent="1">
          <mxGeometry x="189.99999999999997" y="379" width="32.48" height="21" as="geometry" />
        </mxCell>
        <mxCell id="1Ip1bbgy9BkKtDCGq5w8-20" value="" style="shape=mxgraph.signs.transportation.scooter;html=1;pointerEvents=1;fillColor=#000000;strokeColor=none;verticalLabelPosition=bottom;verticalAlign=top;align=center;" vertex="1" parent="1">
          <mxGeometry x="149.99999999999997" y="379" width="32.48" height="21" as="geometry" />
        </mxCell>
        <mxCell id="1Ip1bbgy9BkKtDCGq5w8-21" value="" style="endArrow=classic;html=1;rounded=0;exitX=1;exitY=0.5;exitDx=0;exitDy=0;" edge="1" parent="1" source="1Ip1bbgy9BkKtDCGq5w8-11">
          <mxGeometry width="50" height="50" relative="1" as="geometry">
            <mxPoint x="610" y="430" as="sourcePoint" />
            <mxPoint x="610" y="440" as="targetPoint" />
            <Array as="points" />
          </mxGeometry>
        </mxCell>
        <mxCell id="1Ip1bbgy9BkKtDCGq5w8-22" value="&lt;font style=&quot;font-size: 10px;&quot;&gt;Choose one&lt;/font&gt;&lt;div&gt;&lt;font style=&quot;font-size: 10px;&quot;&gt;only!&lt;/font&gt;&lt;/div&gt;" style="text;html=1;align=center;verticalAlign=middle;resizable=0;points=[];autosize=1;strokeColor=none;fillColor=none;" vertex="1" parent="1">
          <mxGeometry x="374" y="400" width="80" height="40" as="geometry" />
        </mxCell>
        <mxCell id="1Ip1bbgy9BkKtDCGq5w8-32" value="&lt;font style=&quot;font-size: 10px;&quot;&gt;Butter&lt;/font&gt;" style="shape=cylinder3;whiteSpace=wrap;html=1;boundedLbl=1;backgroundOutline=1;size=4.199999999999932;" vertex="1" parent="1">
          <mxGeometry x="280" y="600" width="40" height="30" as="geometry" />
        </mxCell>
        <mxCell id="1Ip1bbgy9BkKtDCGq5w8-37" value="&lt;font style=&quot;font-size: 10px;&quot;&gt;Sugar&lt;/font&gt;" style="shape=cylinder3;whiteSpace=wrap;html=1;boundedLbl=1;backgroundOutline=1;size=4.199999999999932;" vertex="1" parent="1">
          <mxGeometry x="280" y="640" width="40" height="30" as="geometry" />
        </mxCell>
        <mxCell id="1Ip1bbgy9BkKtDCGq5w8-38" value="&lt;font style=&quot;font-size: 10px;&quot;&gt;Eggs&lt;/font&gt;" style="shape=cylinder3;whiteSpace=wrap;html=1;boundedLbl=1;backgroundOutline=1;size=4.199999999999932;" vertex="1" parent="1">
          <mxGeometry x="280" y="680" width="40" height="30" as="geometry" />
        </mxCell>
        <mxCell id="1Ip1bbgy9BkKtDCGq5w8-39" value="&lt;font style=&quot;font-size: 10px;&quot;&gt;Flour&lt;/font&gt;" style="shape=cylinder3;whiteSpace=wrap;html=1;boundedLbl=1;backgroundOutline=1;size=4.199999999999932;" vertex="1" parent="1">
          <mxGeometry x="280" y="720" width="40" height="30" as="geometry" />
        </mxCell>
        <mxCell id="1Ip1bbgy9BkKtDCGq5w8-40" value="&lt;b&gt;Mixing ingredients&lt;/b&gt;&lt;br&gt;&lt;div&gt;&lt;font style=&quot;font-size: 10px;&quot;&gt;AND-like Combiner Process&lt;/font&gt;&lt;/div&gt;" style="rounded=1;whiteSpace=wrap;html=1;" vertex="1" parent="1">
          <mxGeometry x="400" y="650" width="150" height="37.75" as="geometry" />
        </mxCell>
        <mxCell id="1Ip1bbgy9BkKtDCGq5w8-41" value="" style="endArrow=classic;html=1;rounded=0;entryX=0;entryY=0.5;entryDx=0;entryDy=0;exitX=1;exitY=0.5;exitDx=0;exitDy=0;exitPerimeter=0;" edge="1" parent="1" source="1Ip1bbgy9BkKtDCGq5w8-51" target="1Ip1bbgy9BkKtDCGq5w8-40">
          <mxGeometry width="50" height="50" relative="1" as="geometry">
            <mxPoint x="345" y="620" as="sourcePoint" />
            <mxPoint x="445" y="550" as="targetPoint" />
            <Array as="points">
              <mxPoint x="370" y="615" />
            </Array>
          </mxGeometry>
        </mxCell>
        <mxCell id="1Ip1bbgy9BkKtDCGq5w8-42" value="" style="endArrow=classic;html=1;rounded=0;entryX=0;entryY=0.5;entryDx=0;entryDy=0;exitX=1;exitY=0.5;exitDx=0;exitDy=0;exitPerimeter=0;" edge="1" parent="1" source="1Ip1bbgy9BkKtDCGq5w8-53" target="1Ip1bbgy9BkKtDCGq5w8-40">
          <mxGeometry width="50" height="50" relative="1" as="geometry">
            <mxPoint x="330" y="625" as="sourcePoint" />
            <mxPoint x="411" y="682" as="targetPoint" />
            <Array as="points">
              <mxPoint x="370" y="655" />
            </Array>
          </mxGeometry>
        </mxCell>
        <mxCell id="1Ip1bbgy9BkKtDCGq5w8-43" value="" style="endArrow=classic;html=1;rounded=0;entryX=0;entryY=0.5;entryDx=0;entryDy=0;exitX=1;exitY=0.5;exitDx=0;exitDy=0;exitPerimeter=0;" edge="1" parent="1" source="1Ip1bbgy9BkKtDCGq5w8-55" target="1Ip1bbgy9BkKtDCGq5w8-40">
          <mxGeometry width="50" height="50" relative="1" as="geometry">
            <mxPoint x="330" y="665" as="sourcePoint" />
            <mxPoint x="410" y="679" as="targetPoint" />
            <Array as="points">
              <mxPoint x="370" y="695" />
            </Array>
          </mxGeometry>
        </mxCell>
        <mxCell id="1Ip1bbgy9BkKtDCGq5w8-44" value="" style="endArrow=classic;html=1;rounded=0;entryX=0;entryY=0.5;entryDx=0;entryDy=0;exitX=0.911;exitY=0.776;exitDx=0;exitDy=0;exitPerimeter=0;" edge="1" parent="1" source="1Ip1bbgy9BkKtDCGq5w8-57">
          <mxGeometry width="50" height="50" relative="1" as="geometry">
            <mxPoint x="320" y="738.47" as="sourcePoint" />
            <mxPoint x="400" y="670.005" as="targetPoint" />
            <Array as="points">
              <mxPoint x="370" y="738" />
            </Array>
          </mxGeometry>
        </mxCell>
        <mxCell id="1Ip1bbgy9BkKtDCGq5w8-45" value="" style="endArrow=classic;html=1;rounded=0;exitX=1;exitY=0.5;exitDx=0;exitDy=0;" edge="1" parent="1" source="1Ip1bbgy9BkKtDCGq5w8-40">
          <mxGeometry width="50" height="50" relative="1" as="geometry">
            <mxPoint x="330" y="625" as="sourcePoint" />
            <mxPoint x="600" y="669" as="targetPoint" />
            <Array as="points" />
          </mxGeometry>
        </mxCell>
        <mxCell id="1Ip1bbgy9BkKtDCGq5w8-62" value="4" style="edgeLabel;html=1;align=center;verticalAlign=middle;resizable=0;points=[];" vertex="1" connectable="0" parent="1Ip1bbgy9BkKtDCGq5w8-45">
          <mxGeometry x="-0.1732" y="-1" relative="1" as="geometry">
            <mxPoint as="offset" />
          </mxGeometry>
        </mxCell>
        <mxCell id="1Ip1bbgy9BkKtDCGq5w8-52" value="" style="endArrow=none;html=1;rounded=0;entryX=0;entryY=0.5;entryDx=0;entryDy=0;exitX=1;exitY=0.5;exitDx=0;exitDy=0;exitPerimeter=0;startFill=0;" edge="1" parent="1" source="1Ip1bbgy9BkKtDCGq5w8-32" target="1Ip1bbgy9BkKtDCGq5w8-51">
          <mxGeometry width="50" height="50" relative="1" as="geometry">
            <mxPoint x="320" y="615" as="sourcePoint" />
            <mxPoint x="400" y="669" as="targetPoint" />
            <Array as="points" />
          </mxGeometry>
        </mxCell>
        <mxCell id="1Ip1bbgy9BkKtDCGq5w8-51" value="&lt;font style=&quot;font-size: 10px;&quot;&gt;1&lt;/font&gt;" style="text;html=1;align=center;verticalAlign=middle;whiteSpace=wrap;rounded=0;" vertex="1" parent="1">
          <mxGeometry x="350" y="610" width="10" height="10" as="geometry" />
        </mxCell>
        <mxCell id="1Ip1bbgy9BkKtDCGq5w8-54" value="" style="endArrow=none;html=1;rounded=0;entryX=0;entryY=0.5;entryDx=0;entryDy=0;exitX=1;exitY=0.5;exitDx=0;exitDy=0;exitPerimeter=0;startFill=0;" edge="1" parent="1" source="1Ip1bbgy9BkKtDCGq5w8-37" target="1Ip1bbgy9BkKtDCGq5w8-53">
          <mxGeometry width="50" height="50" relative="1" as="geometry">
            <mxPoint x="320" y="655" as="sourcePoint" />
            <mxPoint x="400" y="669" as="targetPoint" />
            <Array as="points" />
          </mxGeometry>
        </mxCell>
        <mxCell id="1Ip1bbgy9BkKtDCGq5w8-53" value="&lt;font style=&quot;font-size: 10px;&quot;&gt;1&lt;/font&gt;" style="text;html=1;align=center;verticalAlign=middle;whiteSpace=wrap;rounded=0;" vertex="1" parent="1">
          <mxGeometry x="350" y="650" width="10" height="10" as="geometry" />
        </mxCell>
        <mxCell id="1Ip1bbgy9BkKtDCGq5w8-56" value="" style="endArrow=none;html=1;rounded=0;entryX=0;entryY=0.5;entryDx=0;entryDy=0;exitX=1;exitY=0.5;exitDx=0;exitDy=0;exitPerimeter=0;startFill=0;" edge="1" parent="1" source="1Ip1bbgy9BkKtDCGq5w8-38" target="1Ip1bbgy9BkKtDCGq5w8-55">
          <mxGeometry width="50" height="50" relative="1" as="geometry">
            <mxPoint x="320" y="695" as="sourcePoint" />
            <mxPoint x="400" y="669" as="targetPoint" />
            <Array as="points" />
          </mxGeometry>
        </mxCell>
        <mxCell id="1Ip1bbgy9BkKtDCGq5w8-55" value="&lt;font style=&quot;font-size: 10px;&quot;&gt;1&lt;/font&gt;" style="text;html=1;align=center;verticalAlign=middle;whiteSpace=wrap;rounded=0;" vertex="1" parent="1">
          <mxGeometry x="350" y="690" width="10" height="10" as="geometry" />
        </mxCell>
        <mxCell id="1Ip1bbgy9BkKtDCGq5w8-59" value="" style="endArrow=none;html=1;rounded=0;entryX=0;entryY=0.75;entryDx=0;entryDy=0;exitX=1;exitY=0.578;exitDx=0;exitDy=0;exitPerimeter=0;startFill=0;" edge="1" parent="1" target="1Ip1bbgy9BkKtDCGq5w8-57">
          <mxGeometry width="50" height="50" relative="1" as="geometry">
            <mxPoint x="320" y="738.47" as="sourcePoint" />
            <mxPoint x="400" y="670.005" as="targetPoint" />
            <Array as="points" />
          </mxGeometry>
        </mxCell>
        <mxCell id="1Ip1bbgy9BkKtDCGq5w8-57" value="&lt;font style=&quot;font-size: 10px;&quot;&gt;1&lt;/font&gt;" style="text;html=1;align=center;verticalAlign=middle;whiteSpace=wrap;rounded=0;" vertex="1" parent="1">
          <mxGeometry x="350" y="730" width="10" height="10" as="geometry" />
        </mxCell>
        <mxCell id="1Ip1bbgy9BkKtDCGq5w8-63" value="&lt;font style=&quot;font-size: 10px;&quot;&gt;Batter&lt;/font&gt;" style="shape=cylinder3;whiteSpace=wrap;html=1;boundedLbl=1;backgroundOutline=1;size=4.199999999999932;" vertex="1" parent="1">
          <mxGeometry x="600" y="653.88" width="40" height="30" as="geometry" />
        </mxCell>
        <mxCell id="1Ip1bbgy9BkKtDCGq5w8-64" value="" style="endArrow=classic;html=1;rounded=0;exitX=1;exitY=0.5;exitDx=0;exitDy=0;" edge="1" parent="1" source="1Ip1bbgy9BkKtDCGq5w8-11">
          <mxGeometry width="50" height="50" relative="1" as="geometry">
            <mxPoint x="370" y="450" as="sourcePoint" />
            <mxPoint x="640" y="440" as="targetPoint" />
            <Array as="points" />
          </mxGeometry>
        </mxCell>
      </root>
    </mxGraphModel>
  </diagram>
</mxfile>
